// **********************************************************************
// Converted with SF22SFZ Converter v1.616
// Copyright Nov 16 2012 , Plogue Art et Technologie, Inc
// **********************************************************************
// Conversion Date: Sat Jul 06 00:18:09 2013
// **********************************************************************
// Parent file    : WspMandolinPicking.sf2
// Soundfont      : 2.1
// Internal Name  : Wsp Mandolin Picking.sf2
// Optimised for  : E-mu 10K1
// Intendend for  : SynthFont Viena
// Editor Used    : SynthFont Viena
// Sound Engineer : SynthFont Viena
// Creation Date  : 2011/07/03 1:01:45
// Copyright      : SynthFont Viena

<global>
sample=Mandolin_P.wav
//8.4.2 MIDI Note-On Velocity to Filter Cutoff
//8.4.8 MIDI Continuous Controller 91 to Reverb Effects Send
//8.4.9 MIDI Continuous Controller 93 to Chorus Effects Send
//8.4.10 MIDI Pitch Wheel to Initial Pitch Controlled by MIDI Pitch Wheel Sensitivity
lfo06_wave=0
lfo06_pitch=0
lfo06_pitch_oncc129=50
lfo06_pitch_oncc1=50
lfo06_freq=8.176
amplitude_oncc11=100
amplitude_curvecc11=7
volume=-12.0

<region>
key=57
region_label=p_2a
pitch_keycenter=57
tune=0
offset=0
end=443904
loop_start=0
loop_end=443904
//loop_end=4294967295

<region>
key=58
region_label=p_2as
pitch_keycenter=58
tune=0
offset=443936
end=887041
loop_start=443936
loop_end=887041

<region>
key=59
region_label=p_2b
pitch_keycenter=59
tune=0
offset=887073
end=1342997
loop_start=887073
loop_end=1342997

<region>
lokey=0
hikey=55
region_label=p_2g
pitch_keycenter=55
tune=3
offset=1343029
end=1789909
loop_start=1343029
loop_end=1789909

<region>
key=56
region_label=p_2gs
pitch_keycenter=56
tune=-37
offset=1789941
end=2236689
loop_start=1789941
loop_end=2236689

<region>
key=69
region_label=p_3a
pitch_keycenter=69
tune=0
offset=2236721
end=2531929
loop_start=2236721
loop_end=2531929

<region>
key=70
region_label=p_3as
pitch_keycenter=70
tune=0
offset=2531961
end=2800949
loop_start=2531961
loop_end=2800949

<region>
key=71
region_label=p_3b
pitch_keycenter=71
tune=0
offset=2800981
end=3113324
loop_start=2800981
loop_end=3113324

<region>
key=60
region_label=p_3c
pitch_keycenter=60
tune=0
offset=3113356
end=3400040
loop_start=3113356
loop_end=3400040

<region>
key=61
region_label=p_3cs
pitch_keycenter=61
tune=0
offset=3400072
end=3686465
loop_start=3400072
loop_end=3686465

<region>
key=62
region_label=p_3d
pitch_keycenter=62
tune=0
offset=3686497
end=4302835
loop_start=3686497
loop_end=4302835

<region>
key=63
region_label=p_3ds
pitch_keycenter=63
tune=0
offset=4302867
end=4614318
loop_start=4302867
loop_end=4614318

<region>
key=63
region_label=p_3e
pitch_keycenter=64
tune=0
offset=4614350
end=4880612
loop_start=4614350
loop_end=4880612

<region>
key=65
region_label=p_3f
pitch_keycenter=65
tune=0
offset=4880644
end=5146335
loop_start=4880644
loop_end=5146335

<region>
key=66
region_label=p_3fs
pitch_keycenter=66
tune=0
offset=5146367
end=5502256
loop_start=5146367
loop_end=5502256

<region>
key=67
region_label=p_3g
pitch_keycenter=67
tune=0
offset=5502288
end=5767527
loop_start=5502288
loop_end=5767527

<region>
key=68
region_label=p_3gs
pitch_keycenter=68
tune=0
offset=5767559
end=6033278
loop_start=5767559
loop_end=6033278

<region>
key=81
region_label=p_4a
pitch_keycenter=81
tune=0
offset=6033310
end=6345310
loop_start=6033310
loop_end=6345310

<region>
key=82
region_label=p_4as
pitch_keycenter=82
tune=0
offset=6345342
end=6563072
loop_start=6345342
loop_end=6563072

<region>
key=82
region_label=p_4b
pitch_keycenter=83
tune=0
offset=6563104
end=6761864
loop_start=6563104
loop_end=6761864

<region>
key=72
region_label=p_4c
pitch_keycenter=72
tune=0
offset=6761896
end=7028414
loop_start=6761896
loop_end=7028414

<region>
key=73
region_label=p_4cs
pitch_keycenter=73
tune=0
offset=7028446
end=7294601
loop_start=7028446
loop_end=7294601

<region>
key=74
region_label=p_4d
pitch_keycenter=74
tune=0
offset=7294633
end=7570981
loop_start=7294633
loop_end=7570981

<region>
key=75
region_label=p_4ds
pitch_keycenter=75
tune=0
offset=7571013
end=7828157
loop_start=7571013
loop_end=7828157

<region>
key=76
region_label=p_4e
pitch_keycenter=76
tune=0
offset=7828189
end=8095456
loop_start=7828189
loop_end=8095456

<region>
key=77
region_label=p_4f
pitch_keycenter=77
tune=0
offset=8095488
end=8342228
loop_start=8095488
loop_end=8342228

<region>
key=78
region_label=p_4fs
pitch_keycenter=78
tune=0
offset=8342260
end=8594633
loop_start=8342260
loop_end=8594633

<region>
key=79
region_label=p_4g
pitch_keycenter=79
tune=0
offset=8594665
end=8863232
loop_start=8594665
loop_end=8863232

<region>
key=80
region_label=p_4gs
pitch_keycenter=80
tune=0
offset=8863264
end=9130386
loop_start=8863264
loop_end=9130386

<region>
key=93
region_label=p_5a
pitch_keycenter=93
tune=0
offset=9130418
end=9239818
loop_start=9130418
loop_end=9239818

<region>
key=94
region_label=p_5as
pitch_keycenter=94
tune=0
offset=9239850
end=9315542
loop_start=9239850
loop_end=9315542

<region>
key=95
region_label=p_5b
pitch_keycenter=95
tune=0
offset=9315574
end=9384246
loop_start=9315574
loop_end=9384246

<region>
key=84
region_label=p_5c
pitch_keycenter=84
tune=0
offset=9384278
end=9605556
loop_start=9384278
loop_end=9605556

<region>
key=85
region_label=p_5cs
pitch_keycenter=85
tune=0
offset=9605588
end=9795878
loop_start=9605588
loop_end=9795878

<region>
key=86
region_label=p_5d
pitch_keycenter=86
tune=0
offset=9795910
end=10062384
loop_start=9795910
loop_end=10062384

<region>
key=87
region_label=p_5ds
pitch_keycenter=87
tune=0
offset=10062416
end=10282055
loop_start=10062416
loop_end=10282055

<region>
key=88
region_label=p_5e
pitch_keycenter=88
tune=0
offset=10282087
end=10484664
loop_start=10282087
loop_end=10484664

<region>
key=89
region_label=p_5f
pitch_keycenter=89
tune=0
offset=10484696
end=10663218
loop_start=10484696
loop_end=10663218

<region>
key=90
region_label=p_5fs
pitch_keycenter=90
tune=0
offset=10663250
end=10769713
loop_start=10663250
loop_end=10769713

<region>
key=91
region_label=p_5g
pitch_keycenter=91
tune=0
offset=10769745
end=10853521
loop_start=10769745
loop_end=10853521

<region>
key=92
region_label=p_5gs
pitch_keycenter=92
tune=0
offset=10853553
end=10971057
loop_start=10853553
loop_end=10971057

<region>
lokey=96
hikey=127
region_label=p_6c
pitch_keycenter=96
tune=0
offset=10971089
end=11036252
loop_start=10971089
loop_end=11036252
